<?xml version="1.0" standalone="no"?><!DOCTYPE svg PUBLIC "-//W3C//DTD SVG 1.1//EN" "http://www.w3.org/Graphics/SVG/1.1/DTD/svg11.dtd"><svg t="1563850354893" class="icon" viewBox="0 0 1024 1024" version="1.1" xmlns="http://www.w3.org/2000/svg" p-id="4558" xmlns:xlink="http://www.w3.org/1999/xlink" width="128" height="128"><defs><style type="text/css"></style></defs><path d="M378.536312 830.315766c-41.913599 0-82.660628-8.28264-121.108289-24.616654-37.072337-15.749706-70.397327-38.264489-99.050923-66.918086s-51.167357-61.978587-66.917062-99.050923c-16.334014-38.44766-24.616654-79.195713-24.616654-121.108289l0-13.244652c0-41.913599 8.28264-82.660628 24.616654-121.108289 15.749706-37.072337 38.263465-70.397327 66.917062-99.050923s61.978587-51.167357 99.050923-66.917062c38.44766-16.334014 79.19469-24.616654 121.108289-24.616654l75.79936 0-31.893384-47.391357c-9.465582-14.066367-5.736655-33.142841 8.328689-42.608423 14.065344-9.465582 33.141818-5.737678 42.608423 8.328689l64.087621 95.229898c6.334265 9.41237 6.961552 21.551852 1.630127 31.56695-5.332449 10.015098-15.753799 16.272615-27.098171 16.272615L378.536312 255.082606c-66.545602 0-129.314181 26.120914-176.744423 73.550133-47.429219 47.429219-73.550133 110.198821-73.550133 176.744423l0 13.244652c0 66.545602 26.120914 129.315204 73.550133 176.744423 47.430242 47.430242 110.198821 73.550133 176.744423 73.550133 16.954137 0 30.699186 13.745049 30.699186 30.699186S395.491473 830.315766 378.536312 830.315766z" p-id="4559"></path><path d="M574.754253 923.164431c-9.855462 0-19.533892-4.735861-25.465998-13.516852l-62.726623-92.845595c-6.356778-9.408277-7.000438-21.559015-1.673106-31.587416s15.755846-16.297175 27.111474-16.297175l133.462664 0c66.545602 0 129.315204-26.119891 176.744423-73.550133 47.430242-47.430242 73.550133-110.198821 73.550133-176.744423l0-13.244652c0-66.545602-26.119891-129.315204-73.550133-176.744423-47.430242-47.430242-110.198821-73.550133-176.744423-73.550133-16.954137 0-30.699186-13.745049-30.699186-30.699186s13.745049-30.699186 30.699186-30.699186c41.913599 0 82.659605 8.281617 121.108289 24.616654 37.072337 15.749706 70.39835 38.263465 99.050923 66.917062 28.653597 28.653597 51.16838 61.97961 66.918086 99.050923 16.334014 38.44766 24.616654 79.19469 24.616654 121.108289l0 13.244652c0 41.912575-8.28264 82.660628-24.616654 121.108289-15.749706 37.072337-38.263465 70.397327-66.917062 99.050923s-61.978587 51.16838-99.050923 66.918086c-38.44766 16.334014-79.195713 24.616654-121.109312 24.616654l-75.673493 0 30.375821 44.962028c9.491165 14.048971 5.79703 33.131585-8.251941 42.62275C586.643024 921.459602 580.666916 923.164431 574.754253 923.164431z" p-id="4560"></path><path d="M640.656195 671.455665c-8.055466 0-15.96767-3.171226-21.851681-9.129938L412.686087 453.591729l0 187.16475c0 16.954137-13.745049 30.699186-30.699186 30.699186s-30.699186-13.745049-30.699186-30.699186L351.287715 378.810558c0-12.45159 7.521301-23.670096 19.040658-28.398794 11.519358-4.728698 24.753777-2.030239 33.503045 6.828522l206.119451 208.735022L609.950869 378.810558c0-16.954137 13.745049-30.699186 30.699186-30.699186s30.699186 13.745049 30.699186 30.699186l0 261.944897c0 12.45159-7.522324 23.670096-19.040658 28.398794C648.536676 670.703535 644.578528 671.455665 640.656195 671.455665z" p-id="4561"></path></svg>