<?xml version="1.0" standalone="no"?><!DOCTYPE svg PUBLIC "-//W3C//DTD SVG 1.1//EN" "http://www.w3.org/Graphics/SVG/1.1/DTD/svg11.dtd"><svg t="1572657458509" class="icon" viewBox="0 0 1024 1024" version="1.1" xmlns="http://www.w3.org/2000/svg" p-id="3427" xmlns:xlink="http://www.w3.org/1999/xlink" width="200" height="200"><defs><style type="text/css"></style></defs><path d="M512 0a512 512 0 1 0 512 512A512 512 0 0 0 512 0z m0 950.693512a438.693512 438.693512 0 1 1 438.693512-438.693512 438.693512 438.693512 0 0 1-438.693512 438.693512z" fill="#CCCCCC" p-id="3428"></path><path d="M512 146.040268a365.959732 365.959732 0 1 0 365.387025 365.959732 365.959732 365.959732 0 0 0-365.387025-365.959732z m164.36689 466.183446H458.165548a36.653244 36.653244 0 0 1-36.653244-36.653244V356.223714a36.653244 36.653244 0 0 1 73.306488 0v183.266219h182.693512a36.653244 36.653244 0 1 1 0 72.733781z" fill="#CCCCCC" p-id="3429"></path></svg>